<svg width="27" height="18" viewBox="0 0 27 18" fill="none" xmlns="http://www.w3.org/2000/svg">
<path d="M26.7853 5.05C19.3109 -1.35117 7.68614 -1.34883 0.214729 5.05C-0.0662398 5.29063 -0.0717242 5.69805 0.199963 5.94766L1.64446 7.27461C1.90349 7.51289 2.32031 7.51797 2.58946 7.28945C8.74546 2.06758 18.2537 2.06641 24.4109 7.28945C24.6801 7.51797 25.0969 7.5125 25.3559 7.27461L26.8004 5.94766C27.0717 5.69805 27.0662 5.29063 26.7853 5.05ZM13.5 12.75C12.0087 12.75 10.8 13.8691 10.8 15.25C10.8 16.6309 12.0087 17.75 13.5 17.75C14.9913 17.75 16.2 16.6309 16.2 15.25C16.2 13.8691 14.9913 12.75 13.5 12.75ZM22.0501 9.48477C17.1876 5.50313 9.8069 5.50742 4.94985 9.48477C4.65876 9.72305 4.64948 10.1367 4.92581 10.3891L6.37874 11.7168C6.63187 11.948 7.0394 11.9637 7.30898 11.748C10.8506 8.91328 16.1574 8.91953 19.6906 11.748C19.9602 11.9637 20.3677 11.9484 20.6208 11.7168L22.0738 10.3891C22.3505 10.1367 22.3408 9.72266 22.0501 9.48477Z" fill="white"/>
</svg>
